<mxfile host="app.diagrams.net" modified="2023-05-19T14:06:35.457Z" agent="Mozilla/5.0 (Macintosh; Intel Mac OS X 10_15_7) AppleWebKit/537.36 (KHTML, like Gecko) Chrome/113.0.0.0 Safari/537.36" etag="sWlgK5YX25D74YupKcAk" version="21.3.2" type="device">
  <diagram id="f-XfedKu1a6cWZhIaH3Z" name="Page-1">
    <mxGraphModel dx="955" dy="909" grid="1" gridSize="10" guides="1" tooltips="1" connect="1" arrows="1" fold="1" page="1" pageScale="1" pageWidth="1169" pageHeight="827" math="0" shadow="0">
      <root>
        <mxCell id="0" />
        <mxCell id="1" parent="0" />
        <mxCell id="6p2gXkmqeR6qe_lBu8rq-1" value="&lt;div&gt;&lt;b&gt;Christian Montillaud&lt;/b&gt;&lt;/div&gt;CEO, Fondateur" style="rounded=1;whiteSpace=wrap;html=1;fillColor=#f8cecc;strokeColor=#b85450;" parent="1" vertex="1">
          <mxGeometry x="520" y="40" width="120" height="60" as="geometry" />
        </mxCell>
        <mxCell id="6p2gXkmqeR6qe_lBu8rq-2" value="&lt;div&gt;&lt;b&gt;Rémi Froissart&lt;/b&gt;&lt;/div&gt;&lt;div&gt;Principal Consultant&lt;br&gt;&lt;/div&gt;" style="rounded=1;whiteSpace=wrap;html=1;fillColor=#ffe6cc;strokeColor=#d79b00;" parent="1" vertex="1">
          <mxGeometry x="300" y="260" width="120" height="60" as="geometry" />
        </mxCell>
        <mxCell id="6p2gXkmqeR6qe_lBu8rq-3" value="&lt;div&gt;&lt;b&gt;Gaël Roustan&lt;/b&gt;&lt;/div&gt;&lt;div&gt;CTO&lt;br&gt;&lt;/div&gt;" style="rounded=1;whiteSpace=wrap;html=1;fillColor=#ffe6cc;strokeColor=#d79b00;" parent="1" vertex="1">
          <mxGeometry x="820" y="260" width="120" height="60" as="geometry" />
        </mxCell>
        <mxCell id="6p2gXkmqeR6qe_lBu8rq-4" value="&lt;div&gt;&lt;b&gt;Geoffrey Brunet&lt;/b&gt;&lt;br&gt;&lt;/div&gt;&lt;div&gt;Développeur&lt;br&gt;&lt;/div&gt;" style="rounded=1;whiteSpace=wrap;html=1;fillColor=#fff2cc;strokeColor=#d6b656;" parent="1" vertex="1">
          <mxGeometry x="900" y="470" width="120" height="60" as="geometry" />
        </mxCell>
        <mxCell id="6p2gXkmqeR6qe_lBu8rq-5" value="&lt;div&gt;&lt;b&gt;Christian De Goursac&lt;/b&gt;&lt;br&gt;&lt;/div&gt;&lt;div&gt;Software Engineer&lt;br&gt;&lt;/div&gt;" style="rounded=1;whiteSpace=wrap;html=1;fillColor=#fff2cc;strokeColor=#d6b656;" parent="1" vertex="1">
          <mxGeometry x="760" y="470" width="120" height="60" as="geometry" />
        </mxCell>
        <mxCell id="6p2gXkmqeR6qe_lBu8rq-7" value="&lt;div&gt;&lt;b&gt;Tahiry Ravelonahina&lt;/b&gt;&lt;br&gt;&lt;/div&gt;&lt;div&gt;Software Engineer&lt;br&gt;&lt;/div&gt;" style="rounded=1;whiteSpace=wrap;html=1;fillColor=#fff2cc;strokeColor=#d6b656;" parent="1" vertex="1">
          <mxGeometry x="620" y="470" width="120" height="60" as="geometry" />
        </mxCell>
        <mxCell id="6p2gXkmqeR6qe_lBu8rq-8" value="&lt;div&gt;&lt;b&gt;Cécilia Bourvieux&lt;/b&gt;&lt;br&gt;&lt;/div&gt;&lt;div&gt;Software Engineer&lt;br&gt;&lt;/div&gt;" style="rounded=1;whiteSpace=wrap;html=1;fillColor=#ffe6cc;strokeColor=#d79b00;" parent="1" vertex="1">
          <mxGeometry x="950" y="260" width="120" height="60" as="geometry" />
        </mxCell>
        <mxCell id="6p2gXkmqeR6qe_lBu8rq-9" value="&lt;div&gt;&lt;b&gt;Raphaelle Thomas&lt;/b&gt;&lt;br&gt;&lt;/div&gt;&lt;div&gt;Directrice projets SI Finance&lt;br&gt;&lt;/div&gt;" style="rounded=1;whiteSpace=wrap;html=1;fillColor=#ffe6cc;strokeColor=#d79b00;" parent="1" vertex="1">
          <mxGeometry x="560" y="260" width="120" height="60" as="geometry" />
        </mxCell>
        <mxCell id="6p2gXkmqeR6qe_lBu8rq-10" value="&lt;div&gt;&lt;b&gt;Emmanuel Charpentier&lt;/b&gt;&lt;br&gt;&lt;/div&gt;&lt;div&gt;Consultant sénior&lt;br&gt;&lt;/div&gt;" style="rounded=1;whiteSpace=wrap;html=1;fillColor=#ffe6cc;strokeColor=#d79b00;" parent="1" vertex="1">
          <mxGeometry x="430" y="260" width="120" height="60" as="geometry" />
        </mxCell>
        <mxCell id="6p2gXkmqeR6qe_lBu8rq-11" value="&lt;div&gt;&lt;b&gt;Mohamed Lahssini&lt;/b&gt;&lt;br&gt;&lt;/div&gt;&lt;div&gt;Cloud architect &amp;amp; support manager&lt;br&gt;&lt;/div&gt;" style="rounded=1;whiteSpace=wrap;html=1;fillColor=#ffe6cc;strokeColor=#d79b00;" parent="1" vertex="1">
          <mxGeometry x="690" y="260" width="120" height="60" as="geometry" />
        </mxCell>
        <mxCell id="6p2gXkmqeR6qe_lBu8rq-12" value="&lt;div&gt;&lt;span style=&quot;background-color: initial;&quot;&gt;&lt;b&gt;Jérémi Garot&lt;br&gt;&lt;/b&gt;Développeur&lt;/span&gt;&lt;br&gt;&lt;/div&gt;" style="rounded=1;whiteSpace=wrap;html=1;fillColor=#fff2cc;strokeColor=#d6b656;" parent="1" vertex="1">
          <mxGeometry x="1040" y="470" width="120" height="60" as="geometry" />
        </mxCell>
        <mxCell id="6p2gXkmqeR6qe_lBu8rq-13" value="" style="endArrow=none;html=1;" parent="1" edge="1">
          <mxGeometry width="50" height="50" relative="1" as="geometry">
            <mxPoint x="540" y="410" as="sourcePoint" />
            <mxPoint x="1100" y="410" as="targetPoint" />
          </mxGeometry>
        </mxCell>
        <mxCell id="6p2gXkmqeR6qe_lBu8rq-16" value="" style="endArrow=none;html=1;exitX=0.5;exitY=0;exitDx=0;exitDy=0;" parent="1" edge="1">
          <mxGeometry width="50" height="50" relative="1" as="geometry">
            <mxPoint x="679.5" y="470" as="sourcePoint" />
            <mxPoint x="679.5" y="410" as="targetPoint" />
          </mxGeometry>
        </mxCell>
        <mxCell id="6p2gXkmqeR6qe_lBu8rq-17" value="" style="endArrow=none;html=1;exitX=0.5;exitY=0;exitDx=0;exitDy=0;" parent="1" edge="1">
          <mxGeometry width="50" height="50" relative="1" as="geometry">
            <mxPoint x="819.5" y="470" as="sourcePoint" />
            <mxPoint x="819.5" y="410" as="targetPoint" />
          </mxGeometry>
        </mxCell>
        <mxCell id="6p2gXkmqeR6qe_lBu8rq-18" value="" style="endArrow=none;html=1;exitX=0.5;exitY=0;exitDx=0;exitDy=0;" parent="1" edge="1">
          <mxGeometry width="50" height="50" relative="1" as="geometry">
            <mxPoint x="959.5" y="470" as="sourcePoint" />
            <mxPoint x="959.5" y="410" as="targetPoint" />
          </mxGeometry>
        </mxCell>
        <mxCell id="6p2gXkmqeR6qe_lBu8rq-19" value="" style="endArrow=none;html=1;exitX=0.5;exitY=0;exitDx=0;exitDy=0;" parent="1" edge="1">
          <mxGeometry width="50" height="50" relative="1" as="geometry">
            <mxPoint x="1099.5" y="470" as="sourcePoint" />
            <mxPoint x="1099.5" y="410" as="targetPoint" />
          </mxGeometry>
        </mxCell>
        <mxCell id="6p2gXkmqeR6qe_lBu8rq-20" value="" style="endArrow=none;html=1;exitX=0.5;exitY=0;exitDx=0;exitDy=0;" parent="1" edge="1">
          <mxGeometry width="50" height="50" relative="1" as="geometry">
            <mxPoint x="879" y="410" as="sourcePoint" />
            <mxPoint x="879.5" y="320" as="targetPoint" />
          </mxGeometry>
        </mxCell>
        <mxCell id="6p2gXkmqeR6qe_lBu8rq-21" value="" style="endArrow=none;html=1;" parent="1" edge="1">
          <mxGeometry width="50" height="50" relative="1" as="geometry">
            <mxPoint x="230" y="180" as="sourcePoint" />
            <mxPoint x="1010" y="180" as="targetPoint" />
          </mxGeometry>
        </mxCell>
        <mxCell id="6p2gXkmqeR6qe_lBu8rq-22" value="" style="endArrow=none;html=1;entryX=0.5;entryY=1;entryDx=0;entryDy=0;" parent="1" target="6p2gXkmqeR6qe_lBu8rq-1" edge="1">
          <mxGeometry width="50" height="50" relative="1" as="geometry">
            <mxPoint x="580" y="180" as="sourcePoint" />
            <mxPoint x="689.5" y="420" as="targetPoint" />
          </mxGeometry>
        </mxCell>
        <mxCell id="6p2gXkmqeR6qe_lBu8rq-23" value="" style="endArrow=none;html=1;exitX=0.5;exitY=0;exitDx=0;exitDy=0;" parent="1" source="6p2gXkmqeR6qe_lBu8rq-2" edge="1">
          <mxGeometry width="50" height="50" relative="1" as="geometry">
            <mxPoint x="280" y="510" as="sourcePoint" />
            <mxPoint x="360" y="180" as="targetPoint" />
          </mxGeometry>
        </mxCell>
        <mxCell id="6p2gXkmqeR6qe_lBu8rq-24" value="" style="endArrow=none;html=1;exitX=0.5;exitY=0;exitDx=0;exitDy=0;" parent="1" edge="1">
          <mxGeometry width="50" height="50" relative="1" as="geometry">
            <mxPoint x="489.33" y="260" as="sourcePoint" />
            <mxPoint x="489.33" y="180" as="targetPoint" />
          </mxGeometry>
        </mxCell>
        <mxCell id="6p2gXkmqeR6qe_lBu8rq-25" value="" style="endArrow=none;html=1;exitX=0.5;exitY=0;exitDx=0;exitDy=0;" parent="1" edge="1">
          <mxGeometry width="50" height="50" relative="1" as="geometry">
            <mxPoint x="619.33" y="260" as="sourcePoint" />
            <mxPoint x="619.33" y="180" as="targetPoint" />
          </mxGeometry>
        </mxCell>
        <mxCell id="6p2gXkmqeR6qe_lBu8rq-26" value="" style="endArrow=none;html=1;exitX=0.5;exitY=0;exitDx=0;exitDy=0;" parent="1" edge="1">
          <mxGeometry width="50" height="50" relative="1" as="geometry">
            <mxPoint x="749.33" y="260" as="sourcePoint" />
            <mxPoint x="749.33" y="180" as="targetPoint" />
          </mxGeometry>
        </mxCell>
        <mxCell id="6p2gXkmqeR6qe_lBu8rq-27" value="" style="endArrow=none;html=1;exitX=0.5;exitY=0;exitDx=0;exitDy=0;" parent="1" edge="1">
          <mxGeometry width="50" height="50" relative="1" as="geometry">
            <mxPoint x="880" y="260" as="sourcePoint" />
            <mxPoint x="880" y="180" as="targetPoint" />
          </mxGeometry>
        </mxCell>
        <mxCell id="6p2gXkmqeR6qe_lBu8rq-28" value="" style="endArrow=none;html=1;exitX=0.5;exitY=0;exitDx=0;exitDy=0;" parent="1" edge="1" source="6p2gXkmqeR6qe_lBu8rq-8">
          <mxGeometry width="50" height="50" relative="1" as="geometry">
            <mxPoint x="1059.5" y="260" as="sourcePoint" />
            <mxPoint x="1010" y="180" as="targetPoint" />
          </mxGeometry>
        </mxCell>
        <mxCell id="ynb2aJVZimILiCCJfyba-1" value="&lt;div&gt;&lt;span style=&quot;background-color: initial;&quot;&gt;&lt;b&gt;Gautier Naudin&lt;br&gt;&lt;/b&gt;Software Engineer / Consultant&lt;/span&gt;&lt;br&gt;&lt;/div&gt;" style="rounded=1;whiteSpace=wrap;html=1;fillColor=#fff2cc;strokeColor=#d6b656;" vertex="1" parent="1">
          <mxGeometry x="480" y="470" width="120" height="60" as="geometry" />
        </mxCell>
        <mxCell id="ynb2aJVZimILiCCJfyba-2" value="" style="endArrow=none;html=1;exitX=0.5;exitY=0;exitDx=0;exitDy=0;" edge="1" parent="1">
          <mxGeometry width="50" height="50" relative="1" as="geometry">
            <mxPoint x="539.83" y="470" as="sourcePoint" />
            <mxPoint x="539.83" y="410" as="targetPoint" />
          </mxGeometry>
        </mxCell>
        <mxCell id="ynb2aJVZimILiCCJfyba-3" value="&lt;div&gt;&lt;b&gt;Diane Couturier&lt;/b&gt;&lt;/div&gt;&lt;div&gt;Director advisory - Finance &amp;amp; sustainability&lt;br&gt;&lt;/div&gt;" style="rounded=1;whiteSpace=wrap;html=1;fillColor=#ffe6cc;strokeColor=#d79b00;" vertex="1" parent="1">
          <mxGeometry x="170" y="260" width="120" height="60" as="geometry" />
        </mxCell>
        <mxCell id="ynb2aJVZimILiCCJfyba-4" value="" style="endArrow=none;html=1;exitX=0.5;exitY=0;exitDx=0;exitDy=0;" edge="1" parent="1">
          <mxGeometry width="50" height="50" relative="1" as="geometry">
            <mxPoint x="229.33" y="260" as="sourcePoint" />
            <mxPoint x="229.33" y="180" as="targetPoint" />
          </mxGeometry>
        </mxCell>
        <mxCell id="ynb2aJVZimILiCCJfyba-5" value="" style="endArrow=none;html=1;entryX=0.5;entryY=1;entryDx=0;entryDy=0;exitX=0.5;exitY=0;exitDx=0;exitDy=0;" edge="1" parent="1" source="ynb2aJVZimILiCCJfyba-6" target="ynb2aJVZimILiCCJfyba-3">
          <mxGeometry width="50" height="50" relative="1" as="geometry">
            <mxPoint x="230" y="380" as="sourcePoint" />
            <mxPoint x="549.83" y="420" as="targetPoint" />
          </mxGeometry>
        </mxCell>
        <mxCell id="ynb2aJVZimILiCCJfyba-6" value="&lt;div&gt;&lt;span style=&quot;background-color: initial;&quot;&gt;&lt;b&gt;Laure Montillaud&lt;br&gt;&lt;/b&gt;&lt;/span&gt;Advisory - Finance &amp;amp; sustainability&lt;br&gt;&lt;/div&gt;" style="rounded=1;whiteSpace=wrap;html=1;fillColor=#fff2cc;strokeColor=#d6b656;" vertex="1" parent="1">
          <mxGeometry x="170" y="470" width="120" height="60" as="geometry" />
        </mxCell>
      </root>
    </mxGraphModel>
  </diagram>
</mxfile>
